<svg xmlns="http://www.w3.org/2000/svg" xmlns:xlink="http://www.w3.org/1999/xlink" width="500" zoomAndPan="magnify" viewBox="0 0 375 374.999991" height="500" preserveAspectRatio="xMidYMid meet" version="1.0"><defs><g/><clipPath id="06ce03ea2d"><path d="M 72.011719 79.230469 L 303 79.230469 L 303 295.980469 L 72.011719 295.980469 Z M 72.011719 79.230469 " clip-rule="nonzero"/></clipPath><clipPath id="ae9b8a64fb"><path d="M 45.222656 151.226562 L 329.777344 151.226562 L 329.777344 214.960938 L 45.222656 214.960938 Z M 45.222656 151.226562 " clip-rule="nonzero"/></clipPath></defs><g clip-path="url(#06ce03ea2d)"><path fill="#004aad" d="M 297.574219 295.769531 C 300.640625 295.769531 302.988281 293.421875 302.988281 290.355469 L 302.988281 272.308594 C 302.988281 269.242188 300.640625 266.894531 297.574219 266.894531 L 290.355469 266.894531 L 290.355469 100.882812 L 297.574219 100.882812 C 300.640625 100.882812 302.988281 98.539062 302.988281 95.46875 L 302.988281 84.644531 C 302.988281 81.574219 300.640625 79.230469 297.574219 79.230469 L 77.425781 79.230469 C 74.359375 79.230469 72.011719 81.574219 72.011719 84.644531 L 72.011719 95.46875 C 72.011719 98.539062 74.359375 100.882812 77.425781 100.882812 L 84.644531 100.882812 L 84.644531 266.894531 L 77.425781 266.894531 C 74.359375 266.894531 72.011719 269.242188 72.011719 272.308594 L 72.011719 290.355469 C 72.011719 293.421875 74.359375 295.769531 77.425781 295.769531 Z M 77.425781 97.273438 C 76.34375 97.273438 75.621094 96.550781 75.621094 95.46875 L 75.621094 84.644531 C 75.621094 83.558594 76.34375 82.839844 77.425781 82.839844 L 297.574219 82.839844 C 298.65625 82.839844 299.378906 83.558594 299.378906 84.644531 L 299.378906 95.46875 C 299.378906 96.550781 298.65625 97.273438 297.574219 97.273438 Z M 212.761719 214.566406 L 286.746094 214.566406 L 286.746094 266.894531 L 189.304688 266.894531 L 189.304688 214.566406 Z M 200.128906 210.957031 L 200.128906 171.257812 L 210.957031 171.257812 L 210.957031 210.957031 Z M 221.785156 210.957031 L 221.785156 171.257812 L 232.613281 171.257812 L 232.613281 210.957031 Z M 243.4375 210.957031 L 243.4375 171.257812 L 254.265625 171.257812 L 254.265625 210.957031 Z M 265.09375 210.957031 L 265.09375 171.257812 L 275.917969 171.257812 L 275.917969 210.957031 Z M 279.527344 210.957031 L 279.527344 169.453125 C 279.527344 168.371094 278.808594 167.648438 277.722656 167.648438 L 263.289062 167.648438 C 262.207031 167.648438 261.484375 168.371094 261.484375 169.453125 L 261.484375 210.957031 L 257.875 210.957031 L 257.875 169.453125 C 257.875 168.371094 257.152344 167.648438 256.070312 167.648438 L 241.632812 167.648438 C 240.550781 167.648438 239.828125 168.371094 239.828125 169.453125 L 239.828125 210.957031 L 236.21875 210.957031 L 236.21875 169.453125 C 236.21875 168.371094 235.5 167.648438 234.417969 167.648438 L 219.980469 167.648438 C 218.898438 167.648438 218.175781 168.371094 218.175781 169.453125 L 218.175781 210.957031 L 214.566406 210.957031 L 214.566406 169.453125 C 214.566406 168.371094 213.84375 167.648438 212.761719 167.648438 L 198.328125 167.648438 C 197.242188 167.648438 196.523438 168.371094 196.523438 169.453125 L 196.523438 210.957031 L 189.304688 210.957031 L 189.304688 156.824219 L 286.746094 156.824219 L 286.746094 210.957031 Z M 196.523438 153.214844 L 196.523438 145.996094 L 239.828125 145.996094 L 239.828125 153.214844 Z M 256.792969 152.128906 L 244.882812 110.445312 L 251.738281 108.460938 L 263.648438 150.144531 Z M 273.03125 152.128906 L 261.121094 110.445312 L 267.980469 108.460938 L 279.890625 150.144531 Z M 282.414062 153.214844 L 282.777344 153.03125 C 283.316406 152.851562 283.679688 152.671875 283.859375 152.128906 C 284.039062 151.769531 284.21875 151.226562 284.039062 150.6875 L 271.046875 105.574219 C 270.6875 104.671875 269.785156 104.132812 268.882812 104.3125 L 258.414062 107.378906 C 257.875 107.558594 257.511719 107.738281 257.332031 108.28125 C 257.152344 108.640625 256.972656 109.183594 257.152344 109.726562 L 269.605469 153.214844 L 266.175781 153.214844 L 266.535156 153.03125 C 267.078125 152.851562 267.4375 152.671875 267.617188 152.128906 C 267.800781 151.769531 267.980469 151.226562 267.800781 150.6875 L 254.808594 105.574219 C 254.445312 104.671875 253.542969 104.132812 252.640625 104.3125 L 242.175781 107.378906 C 241.632812 107.558594 241.273438 107.738281 241.09375 108.28125 C 240.914062 108.640625 240.730469 109.183594 240.914062 109.726562 L 240.914062 109.90625 L 194.71875 109.90625 C 193.632812 109.90625 192.914062 110.628906 192.914062 111.710938 L 192.914062 122.535156 C 192.914062 123.621094 193.632812 124.339844 194.71875 124.339844 L 241.632812 124.339844 C 242.71875 124.339844 243.4375 123.621094 243.4375 122.535156 L 243.4375 118.746094 L 253.363281 153.214844 L 243.4375 153.214844 L 243.4375 144.191406 C 243.4375 143.109375 242.71875 142.386719 241.632812 142.386719 L 194.71875 142.386719 C 193.632812 142.386719 192.914062 143.109375 192.914062 144.191406 L 192.914062 153.214844 L 189.304688 153.214844 L 189.304688 100.882812 L 286.746094 100.882812 L 286.746094 153.214844 Z M 239.828125 113.515625 L 239.828125 120.734375 L 196.523438 120.734375 L 196.523438 113.515625 Z M 180.28125 223.589844 L 165.84375 223.589844 C 164.761719 223.589844 164.039062 224.308594 164.039062 225.394531 L 164.039062 266.894531 L 160.433594 266.894531 L 160.433594 225.394531 C 160.433594 224.308594 159.710938 223.589844 158.628906 223.589844 L 144.191406 223.589844 C 143.109375 223.589844 142.386719 224.308594 142.386719 225.394531 L 142.386719 266.894531 L 88.253906 266.894531 L 88.253906 214.566406 L 185.695312 214.566406 L 185.695312 266.894531 L 182.085938 266.894531 L 182.085938 225.394531 C 182.085938 224.308594 181.363281 223.589844 180.28125 223.589844 Z M 178.476562 227.199219 L 178.476562 266.894531 L 167.648438 266.894531 L 167.648438 227.199219 Z M 156.824219 227.199219 L 156.824219 266.894531 L 145.996094 266.894531 L 145.996094 227.199219 Z M 95.46875 210.957031 L 95.46875 200.128906 L 145.996094 200.128906 L 145.996094 210.957031 Z M 168.371094 210.957031 L 176.851562 207.347656 C 177.214844 207.167969 177.574219 206.808594 177.753906 206.445312 C 177.9375 206.085938 177.9375 205.542969 177.753906 205.003906 L 160.972656 165.121094 C 160.613281 164.222656 159.53125 163.859375 158.628906 164.222656 L 145.273438 169.816406 C 144.914062 169.996094 144.550781 170.355469 144.371094 170.71875 C 144.191406 171.078125 144.191406 171.621094 144.371094 172.160156 L 145.453125 174.867188 L 93.664062 174.867188 C 92.582031 174.867188 91.859375 175.589844 91.859375 176.671875 L 91.859375 191.109375 C 91.859375 192.191406 92.582031 192.914062 93.664062 192.914062 L 147.800781 192.914062 C 148.882812 192.914062 149.605469 192.191406 149.605469 191.109375 L 149.605469 184.613281 L 160.613281 210.957031 L 149.605469 210.957031 L 149.605469 198.324219 C 149.605469 197.242188 148.882812 196.519531 147.800781 196.519531 L 93.664062 196.519531 C 92.582031 196.519531 91.859375 197.242188 91.859375 198.324219 L 91.859375 210.957031 L 88.253906 210.957031 L 88.253906 156.824219 L 185.695312 156.824219 L 185.695312 210.957031 Z M 163.859375 208.972656 L 148.523438 172.339844 L 158.445312 168.191406 L 173.785156 204.820312 Z M 145.996094 178.476562 L 145.996094 189.304688 L 95.46875 189.304688 L 95.46875 178.476562 Z M 95.46875 153.214844 L 95.46875 113.515625 L 106.296875 113.515625 L 106.296875 153.214844 Z M 117.125 153.214844 L 117.125 113.515625 L 127.949219 113.515625 L 127.949219 153.214844 Z M 138.777344 153.214844 L 138.777344 113.515625 L 149.605469 113.515625 L 149.605469 153.214844 Z M 166.929688 153.214844 L 153.214844 153.214844 L 153.214844 120.550781 Z M 155.019531 115.320312 L 164.941406 111.167969 L 180.28125 147.800781 L 170.355469 151.949219 Z M 176.671875 153.214844 L 183.347656 150.324219 C 184.25 149.964844 184.613281 148.882812 184.25 147.980469 L 167.46875 108.101562 C 167.289062 107.738281 166.929688 107.378906 166.566406 107.199219 C 166.207031 107.019531 165.664062 107.019531 165.125 107.199219 L 153.214844 112.25 L 153.214844 111.710938 C 153.214844 110.628906 152.492188 109.90625 151.410156 109.90625 L 136.972656 109.90625 C 135.890625 109.90625 135.167969 110.628906 135.167969 111.710938 L 135.167969 153.214844 L 131.558594 153.214844 L 131.558594 111.710938 C 131.558594 110.628906 130.839844 109.90625 129.753906 109.90625 L 115.320312 109.90625 C 114.238281 109.90625 113.515625 110.628906 113.515625 111.710938 L 113.515625 153.214844 L 109.90625 153.214844 L 109.90625 111.710938 C 109.90625 110.628906 109.183594 109.90625 108.101562 109.90625 L 93.664062 109.90625 C 92.582031 109.90625 91.859375 110.628906 91.859375 111.710938 L 91.859375 153.214844 L 88.253906 153.214844 L 88.253906 100.882812 L 185.695312 100.882812 L 185.695312 153.214844 Z M 75.621094 290.355469 L 75.621094 272.308594 C 75.621094 271.226562 76.34375 270.503906 77.425781 270.503906 L 297.574219 270.503906 C 298.65625 270.503906 299.378906 271.226562 299.378906 272.308594 L 299.378906 290.355469 C 299.378906 291.4375 298.65625 292.160156 297.574219 292.160156 L 77.425781 292.160156 C 76.34375 292.160156 75.621094 291.4375 75.621094 290.355469 Z M 75.621094 290.355469 " fill-opacity="1" fill-rule="nonzero"/></g><path fill="#004aad" d="M 102.6875 117.125 L 99.078125 117.125 C 97.996094 117.125 97.273438 117.84375 97.273438 118.929688 C 97.273438 120.011719 97.996094 120.734375 99.078125 120.734375 L 102.6875 120.734375 C 103.769531 120.734375 104.492188 120.011719 104.492188 118.929688 C 104.492188 117.84375 103.769531 117.125 102.6875 117.125 Z M 102.6875 117.125 " fill-opacity="1" fill-rule="nonzero"/><path fill="#004aad" d="M 102.6875 124.339844 L 99.078125 124.339844 C 97.996094 124.339844 97.273438 125.0625 97.273438 126.144531 C 97.273438 127.230469 97.996094 127.949219 99.078125 127.949219 L 102.6875 127.949219 C 103.769531 127.949219 104.492188 127.230469 104.492188 126.144531 C 104.492188 125.0625 103.769531 124.339844 102.6875 124.339844 Z M 102.6875 124.339844 " fill-opacity="1" fill-rule="nonzero"/><path fill="#004aad" d="M 124.34375 117.125 L 120.734375 117.125 C 119.652344 117.125 118.929688 117.84375 118.929688 118.929688 C 118.929688 120.011719 119.652344 120.734375 120.734375 120.734375 L 124.34375 120.734375 C 125.425781 120.734375 126.148438 120.011719 126.148438 118.929688 C 126.148438 117.84375 125.425781 117.125 124.34375 117.125 Z M 124.34375 117.125 " fill-opacity="1" fill-rule="nonzero"/><path fill="#004aad" d="M 124.34375 124.339844 L 120.734375 124.339844 C 119.652344 124.339844 118.929688 125.0625 118.929688 126.144531 C 118.929688 127.230469 119.652344 127.949219 120.734375 127.949219 L 124.34375 127.949219 C 125.425781 127.949219 126.148438 127.230469 126.148438 126.144531 C 126.148438 125.0625 125.425781 124.339844 124.34375 124.339844 Z M 124.34375 124.339844 " fill-opacity="1" fill-rule="nonzero"/><path fill="#004aad" d="M 145.996094 117.125 L 142.386719 117.125 C 141.304688 117.125 140.582031 117.84375 140.582031 118.929688 C 140.582031 120.011719 141.304688 120.734375 142.386719 120.734375 L 145.996094 120.734375 C 147.078125 120.734375 147.800781 120.011719 147.800781 118.929688 C 147.800781 117.84375 147.078125 117.125 145.996094 117.125 Z M 145.996094 117.125 " fill-opacity="1" fill-rule="nonzero"/><path fill="#004aad" d="M 145.996094 124.339844 L 142.386719 124.339844 C 141.304688 124.339844 140.582031 125.0625 140.582031 126.144531 C 140.582031 127.230469 141.304688 127.949219 142.386719 127.949219 L 145.996094 127.949219 C 147.078125 127.949219 147.800781 127.230469 147.800781 126.144531 C 147.800781 125.0625 147.078125 124.339844 145.996094 124.339844 Z M 145.996094 124.339844 " fill-opacity="1" fill-rule="nonzero"/><path fill="#004aad" d="M 165.484375 116.582031 C 165.125 115.679688 164.039062 115.320312 163.140625 115.679688 L 159.710938 117.125 C 158.808594 117.484375 158.445312 118.566406 158.808594 119.46875 C 159.167969 120.191406 159.710938 120.550781 160.433594 120.550781 C 160.613281 120.550781 160.972656 120.550781 161.152344 120.371094 L 164.402344 118.929688 C 165.484375 118.566406 165.84375 117.484375 165.484375 116.582031 Z M 165.484375 116.582031 " fill-opacity="1" fill-rule="nonzero"/><path fill="#004aad" d="M 165.84375 122.355469 L 162.597656 123.800781 C 161.695312 124.160156 161.335938 125.242188 161.695312 126.144531 C 162.054688 126.867188 162.597656 127.230469 163.320312 127.230469 C 163.5 127.230469 163.859375 127.230469 164.039062 127.046875 L 167.289062 125.605469 C 168.191406 125.242188 168.550781 124.160156 168.191406 123.257812 C 167.832031 122.355469 166.746094 121.816406 165.84375 122.355469 Z M 165.84375 122.355469 " fill-opacity="1" fill-rule="nonzero"/><path fill="#004aad" d="M 111.710938 182.085938 L 115.320312 182.085938 L 115.320312 185.695312 L 111.710938 185.695312 Z M 111.710938 182.085938 " fill-opacity="1" fill-rule="nonzero"/><path fill="#004aad" d="M 111.710938 203.738281 L 115.320312 203.738281 L 115.320312 207.347656 L 111.710938 207.347656 Z M 111.710938 203.738281 " fill-opacity="1" fill-rule="nonzero"/><path fill="#004aad" d="M 118.929688 182.085938 L 122.539062 182.085938 L 122.539062 185.695312 L 118.929688 185.695312 Z M 118.929688 182.085938 " fill-opacity="1" fill-rule="nonzero"/><path fill="#004aad" d="M 118.929688 203.738281 L 122.539062 203.738281 L 122.539062 207.347656 L 118.929688 207.347656 Z M 118.929688 203.738281 " fill-opacity="1" fill-rule="nonzero"/><path fill="#004aad" d="M 126.148438 182.085938 L 129.753906 182.085938 L 129.753906 185.695312 L 126.148438 185.695312 Z M 126.148438 182.085938 " fill-opacity="1" fill-rule="nonzero"/><path fill="#004aad" d="M 126.148438 203.738281 L 129.753906 203.738281 L 129.753906 207.347656 L 126.148438 207.347656 Z M 126.148438 203.738281 " fill-opacity="1" fill-rule="nonzero"/><path fill="#004aad" d="M 192.914062 138.777344 C 192.914062 139.859375 193.632812 140.582031 194.71875 140.582031 L 241.632812 140.582031 C 242.71875 140.582031 243.4375 139.859375 243.4375 138.777344 L 243.4375 127.949219 C 243.4375 126.867188 242.71875 126.144531 241.632812 126.144531 L 194.71875 126.144531 C 193.632812 126.144531 192.914062 126.867188 192.914062 127.949219 Z M 196.523438 129.753906 L 239.828125 129.753906 L 239.828125 136.972656 L 196.523438 136.972656 Z M 196.523438 129.753906 " fill-opacity="1" fill-rule="nonzero"/><path fill="#004aad" d="M 212.761719 133.363281 C 212.761719 133.601562 212.714844 133.832031 212.625 134.054688 C 212.535156 134.277344 212.402344 134.46875 212.234375 134.640625 C 212.066406 134.808594 211.871094 134.941406 211.648438 135.03125 C 211.425781 135.121094 211.195312 135.167969 210.957031 135.167969 C 210.71875 135.167969 210.488281 135.121094 210.265625 135.03125 C 210.046875 134.941406 209.851562 134.808594 209.683594 134.640625 C 209.511719 134.46875 209.382812 134.277344 209.289062 134.054688 C 209.199219 133.832031 209.152344 133.601562 209.152344 133.363281 C 209.152344 133.125 209.199219 132.894531 209.289062 132.671875 C 209.382812 132.453125 209.511719 132.257812 209.683594 132.089844 C 209.851562 131.917969 210.046875 131.789062 210.265625 131.695312 C 210.488281 131.605469 210.71875 131.558594 210.957031 131.558594 C 211.195312 131.558594 211.425781 131.605469 211.648438 131.695312 C 211.871094 131.789062 212.066406 131.917969 212.234375 132.089844 C 212.402344 132.257812 212.535156 132.453125 212.625 132.671875 C 212.714844 132.894531 212.761719 133.125 212.761719 133.363281 Z M 212.761719 133.363281 " fill-opacity="1" fill-rule="nonzero"/><path fill="#004aad" d="M 212.761719 149.605469 C 212.761719 149.84375 212.714844 150.074219 212.625 150.292969 C 212.535156 150.515625 212.402344 150.710938 212.234375 150.878906 C 212.066406 151.050781 211.871094 151.179688 211.648438 151.269531 C 211.425781 151.363281 211.195312 151.410156 210.957031 151.410156 C 210.71875 151.410156 210.488281 151.363281 210.265625 151.269531 C 210.046875 151.179688 209.851562 151.050781 209.683594 150.878906 C 209.511719 150.710938 209.382812 150.515625 209.289062 150.292969 C 209.199219 150.074219 209.152344 149.84375 209.152344 149.605469 C 209.152344 149.363281 209.199219 149.136719 209.289062 148.914062 C 209.382812 148.691406 209.511719 148.496094 209.683594 148.328125 C 209.851562 148.160156 210.046875 148.027344 210.265625 147.9375 C 210.488281 147.84375 210.71875 147.800781 210.957031 147.800781 C 211.195312 147.800781 211.425781 147.84375 211.648438 147.9375 C 211.871094 148.027344 212.066406 148.160156 212.234375 148.328125 C 212.402344 148.496094 212.535156 148.691406 212.625 148.914062 C 212.714844 149.136719 212.761719 149.363281 212.761719 149.605469 Z M 212.761719 149.605469 " fill-opacity="1" fill-rule="nonzero"/><path fill="#004aad" d="M 219.980469 133.363281 C 219.980469 133.601562 219.933594 133.832031 219.84375 134.054688 C 219.75 134.277344 219.621094 134.46875 219.453125 134.640625 C 219.28125 134.808594 219.085938 134.941406 218.867188 135.03125 C 218.644531 135.121094 218.414062 135.167969 218.175781 135.167969 C 217.9375 135.167969 217.707031 135.121094 217.484375 135.03125 C 217.265625 134.941406 217.070312 134.808594 216.898438 134.640625 C 216.730469 134.46875 216.601562 134.277344 216.507812 134.054688 C 216.417969 133.832031 216.371094 133.601562 216.371094 133.363281 C 216.371094 133.125 216.417969 132.894531 216.507812 132.671875 C 216.601562 132.453125 216.730469 132.257812 216.898438 132.089844 C 217.070312 131.917969 217.265625 131.789062 217.484375 131.695312 C 217.707031 131.605469 217.9375 131.558594 218.175781 131.558594 C 218.414062 131.558594 218.644531 131.605469 218.867188 131.695312 C 219.085938 131.789062 219.28125 131.917969 219.453125 132.089844 C 219.621094 132.257812 219.75 132.453125 219.84375 132.671875 C 219.933594 132.894531 219.980469 133.125 219.980469 133.363281 Z M 219.980469 133.363281 " fill-opacity="1" fill-rule="nonzero"/><path fill="#004aad" d="M 219.980469 149.605469 C 219.980469 149.84375 219.933594 150.074219 219.84375 150.292969 C 219.75 150.515625 219.621094 150.710938 219.453125 150.878906 C 219.28125 151.050781 219.085938 151.179688 218.867188 151.269531 C 218.644531 151.363281 218.414062 151.410156 218.175781 151.410156 C 217.9375 151.410156 217.707031 151.363281 217.484375 151.269531 C 217.265625 151.179688 217.070312 151.050781 216.898438 150.878906 C 216.730469 150.710938 216.601562 150.515625 216.507812 150.292969 C 216.417969 150.074219 216.371094 149.84375 216.371094 149.605469 C 216.371094 149.363281 216.417969 149.136719 216.507812 148.914062 C 216.601562 148.691406 216.730469 148.496094 216.898438 148.328125 C 217.070312 148.160156 217.265625 148.027344 217.484375 147.9375 C 217.707031 147.84375 217.9375 147.800781 218.175781 147.800781 C 218.414062 147.800781 218.644531 147.84375 218.867188 147.9375 C 219.085938 148.027344 219.28125 148.160156 219.453125 148.328125 C 219.621094 148.496094 219.75 148.691406 219.84375 148.914062 C 219.933594 149.136719 219.980469 149.363281 219.980469 149.605469 Z M 219.980469 149.605469 " fill-opacity="1" fill-rule="nonzero"/><path fill="#004aad" d="M 227.199219 133.363281 C 227.199219 133.601562 227.152344 133.832031 227.0625 134.054688 C 226.96875 134.277344 226.839844 134.46875 226.667969 134.640625 C 226.5 134.808594 226.304688 134.941406 226.085938 135.03125 C 225.863281 135.121094 225.632812 135.167969 225.394531 135.167969 C 225.15625 135.167969 224.925781 135.121094 224.703125 135.03125 C 224.480469 134.941406 224.285156 134.808594 224.117188 134.640625 C 223.949219 134.46875 223.816406 134.277344 223.726562 134.054688 C 223.636719 133.832031 223.589844 133.601562 223.589844 133.363281 C 223.589844 133.125 223.636719 132.894531 223.726562 132.671875 C 223.816406 132.453125 223.949219 132.257812 224.117188 132.089844 C 224.285156 131.917969 224.480469 131.789062 224.703125 131.695312 C 224.925781 131.605469 225.15625 131.558594 225.394531 131.558594 C 225.632812 131.558594 225.863281 131.605469 226.085938 131.695312 C 226.304688 131.789062 226.5 131.917969 226.667969 132.089844 C 226.839844 132.257812 226.96875 132.453125 227.0625 132.671875 C 227.152344 132.894531 227.199219 133.125 227.199219 133.363281 Z M 227.199219 133.363281 " fill-opacity="1" fill-rule="nonzero"/><path fill="#004aad" d="M 212.761719 117.125 C 212.761719 117.363281 212.714844 117.59375 212.625 117.8125 C 212.535156 118.035156 212.402344 118.230469 212.234375 118.398438 C 212.066406 118.570312 211.871094 118.699219 211.648438 118.789062 C 211.425781 118.882812 211.195312 118.929688 210.957031 118.929688 C 210.71875 118.929688 210.488281 118.882812 210.265625 118.789062 C 210.046875 118.699219 209.851562 118.570312 209.683594 118.398438 C 209.511719 118.230469 209.382812 118.035156 209.289062 117.8125 C 209.199219 117.59375 209.152344 117.363281 209.152344 117.125 C 209.152344 116.882812 209.199219 116.652344 209.289062 116.433594 C 209.382812 116.210938 209.511719 116.015625 209.683594 115.847656 C 209.851562 115.679688 210.046875 115.546875 210.265625 115.457031 C 210.488281 115.363281 210.71875 115.320312 210.957031 115.320312 C 211.195312 115.320312 211.425781 115.363281 211.648438 115.457031 C 211.871094 115.546875 212.066406 115.679688 212.234375 115.847656 C 212.402344 116.015625 212.535156 116.210938 212.625 116.433594 C 212.714844 116.652344 212.761719 116.882812 212.761719 117.125 Z M 212.761719 117.125 " fill-opacity="1" fill-rule="nonzero"/><path fill="#004aad" d="M 219.980469 117.125 C 219.980469 117.363281 219.933594 117.59375 219.84375 117.8125 C 219.75 118.035156 219.621094 118.230469 219.453125 118.398438 C 219.28125 118.570312 219.085938 118.699219 218.867188 118.789062 C 218.644531 118.882812 218.414062 118.929688 218.175781 118.929688 C 217.9375 118.929688 217.707031 118.882812 217.484375 118.789062 C 217.265625 118.699219 217.070312 118.570312 216.898438 118.398438 C 216.730469 118.230469 216.601562 118.035156 216.507812 117.8125 C 216.417969 117.59375 216.371094 117.363281 216.371094 117.125 C 216.371094 116.882812 216.417969 116.652344 216.507812 116.433594 C 216.601562 116.210938 216.730469 116.015625 216.898438 115.847656 C 217.070312 115.679688 217.265625 115.546875 217.484375 115.457031 C 217.707031 115.363281 217.9375 115.320312 218.175781 115.320312 C 218.414062 115.320312 218.644531 115.363281 218.867188 115.457031 C 219.085938 115.546875 219.28125 115.679688 219.453125 115.847656 C 219.621094 116.015625 219.75 116.210938 219.84375 116.433594 C 219.933594 116.652344 219.980469 116.882812 219.980469 117.125 Z M 219.980469 117.125 " fill-opacity="1" fill-rule="nonzero"/><path fill="#004aad" d="M 227.199219 117.125 C 227.199219 117.363281 227.152344 117.59375 227.0625 117.8125 C 226.96875 118.035156 226.839844 118.230469 226.667969 118.398438 C 226.5 118.570312 226.304688 118.699219 226.085938 118.789062 C 225.863281 118.882812 225.632812 118.929688 225.394531 118.929688 C 225.15625 118.929688 224.925781 118.882812 224.703125 118.789062 C 224.480469 118.699219 224.285156 118.570312 224.117188 118.398438 C 223.949219 118.230469 223.816406 118.035156 223.726562 117.8125 C 223.636719 117.59375 223.589844 117.363281 223.589844 117.125 C 223.589844 116.882812 223.636719 116.652344 223.726562 116.433594 C 223.816406 116.210938 223.949219 116.015625 224.117188 115.847656 C 224.285156 115.679688 224.480469 115.546875 224.703125 115.457031 C 224.925781 115.363281 225.15625 115.320312 225.394531 115.320312 C 225.632812 115.320312 225.863281 115.363281 226.085938 115.457031 C 226.304688 115.546875 226.5 115.679688 226.667969 115.847656 C 226.839844 116.015625 226.96875 116.210938 227.0625 116.433594 C 227.152344 116.652344 227.199219 116.882812 227.199219 117.125 Z M 227.199219 117.125 " fill-opacity="1" fill-rule="nonzero"/><path fill="#004aad" d="M 254.027344 122.929688 C 254.09375 123.160156 254.113281 123.394531 254.085938 123.632812 C 254.0625 123.871094 253.988281 124.09375 253.875 124.304688 C 253.757812 124.511719 253.605469 124.691406 253.417969 124.839844 C 253.230469 124.992188 253.023438 125.097656 252.792969 125.164062 C 252.5625 125.230469 252.328125 125.25 252.09375 125.222656 C 251.855469 125.195312 251.628906 125.125 251.421875 125.007812 C 251.210938 124.894531 251.03125 124.742188 250.882812 124.554688 C 250.734375 124.367188 250.625 124.160156 250.558594 123.929688 C 250.496094 123.699219 250.476562 123.464844 250.5 123.226562 C 250.527344 122.988281 250.601562 122.765625 250.714844 122.558594 C 250.832031 122.347656 250.984375 122.167969 251.171875 122.019531 C 251.355469 121.871094 251.566406 121.761719 251.796875 121.695312 C 252.027344 121.628906 252.257812 121.609375 252.496094 121.636719 C 252.734375 121.664062 252.957031 121.734375 253.167969 121.851562 C 253.378906 121.96875 253.554688 122.117188 253.707031 122.304688 C 253.855469 122.492188 253.960938 122.699219 254.027344 122.929688 Z M 254.027344 122.929688 " fill-opacity="1" fill-rule="nonzero"/><path fill="#004aad" d="M 255.992188 129.792969 C 256.058594 130.023438 256.078125 130.257812 256.050781 130.496094 C 256.023438 130.734375 255.953125 130.957031 255.835938 131.167969 C 255.722656 131.375 255.570312 131.554688 255.382812 131.703125 C 255.195312 131.851562 254.988281 131.960938 254.757812 132.027344 C 254.527344 132.09375 254.292969 132.113281 254.054688 132.085938 C 253.816406 132.058594 253.59375 131.988281 253.386719 131.871094 C 253.175781 131.757812 252.996094 131.605469 252.847656 131.417969 C 252.699219 131.230469 252.589844 131.023438 252.523438 130.792969 C 252.457031 130.5625 252.4375 130.328125 252.464844 130.089844 C 252.492188 129.851562 252.5625 129.628906 252.679688 129.417969 C 252.796875 129.210938 252.945312 129.03125 253.132812 128.882812 C 253.320312 128.734375 253.53125 128.625 253.757812 128.558594 C 253.988281 128.492188 254.222656 128.472656 254.460938 128.5 C 254.699219 128.527344 254.921875 128.597656 255.132812 128.714844 C 255.339844 128.828125 255.519531 128.980469 255.667969 129.167969 C 255.820312 129.355469 255.925781 129.5625 255.992188 129.792969 Z M 255.992188 129.792969 " fill-opacity="1" fill-rule="nonzero"/><path fill="#004aad" d="M 258.007812 136.832031 C 258.070312 137.0625 258.09375 137.296875 258.066406 137.53125 C 258.039062 137.769531 257.964844 137.996094 257.851562 138.203125 C 257.734375 138.414062 257.582031 138.59375 257.398438 138.742188 C 257.210938 138.890625 257 139 256.769531 139.0625 C 256.539062 139.128906 256.308594 139.148438 256.070312 139.125 C 255.832031 139.097656 255.609375 139.023438 255.398438 138.910156 C 255.1875 138.792969 255.011719 138.640625 254.859375 138.453125 C 254.710938 138.269531 254.605469 138.058594 254.539062 137.828125 C 254.472656 137.597656 254.453125 137.367188 254.480469 137.128906 C 254.503906 136.890625 254.578125 136.667969 254.691406 136.457031 C 254.808594 136.246094 254.960938 136.066406 255.148438 135.917969 C 255.335938 135.769531 255.542969 135.664062 255.773438 135.597656 C 256.003906 135.53125 256.238281 135.511719 256.472656 135.539062 C 256.710938 135.5625 256.9375 135.636719 257.144531 135.75 C 257.355469 135.867188 257.535156 136.019531 257.683594 136.207031 C 257.832031 136.394531 257.941406 136.601562 258.007812 136.832031 Z M 258.007812 136.832031 " fill-opacity="1" fill-rule="nonzero"/><path fill="#004aad" d="M 266.714844 123.980469 C 267.078125 124.882812 267.980469 125.425781 268.882812 125.242188 C 269.785156 124.882812 270.324219 123.980469 270.144531 123.078125 C 269.785156 122.175781 268.882812 121.632812 267.980469 121.816406 C 267.078125 121.996094 266.535156 122.898438 266.714844 123.980469 Z M 266.714844 123.980469 " fill-opacity="1" fill-rule="nonzero"/><path fill="#004aad" d="M 272.234375 129.792969 C 272.300781 130.023438 272.320312 130.257812 272.292969 130.496094 C 272.265625 130.734375 272.195312 130.957031 272.078125 131.167969 C 271.960938 131.375 271.8125 131.554688 271.625 131.703125 C 271.4375 131.851562 271.226562 131.960938 270.996094 132.027344 C 270.769531 132.09375 270.535156 132.113281 270.296875 132.085938 C 270.058594 132.058594 269.835938 131.988281 269.625 131.871094 C 269.417969 131.757812 269.238281 131.605469 269.085938 131.417969 C 268.9375 131.230469 268.832031 131.023438 268.765625 130.792969 C 268.699219 130.5625 268.679688 130.328125 268.707031 130.089844 C 268.734375 129.851562 268.804688 129.628906 268.917969 129.417969 C 269.035156 129.210938 269.1875 129.03125 269.375 128.882812 C 269.5625 128.730469 269.769531 128.625 270 128.558594 C 270.230469 128.492188 270.464844 128.472656 270.703125 128.5 C 270.9375 128.527344 271.164062 128.597656 271.371094 128.714844 C 271.582031 128.828125 271.761719 128.980469 271.910156 129.167969 C 272.058594 129.355469 272.167969 129.5625 272.234375 129.792969 Z M 272.234375 129.792969 " fill-opacity="1" fill-rule="nonzero"/><path fill="#004aad" d="M 270.6875 137.695312 C 271.046875 138.597656 271.949219 139.136719 272.851562 138.957031 C 273.753906 138.597656 274.296875 137.695312 274.113281 136.792969 C 273.753906 135.890625 272.851562 135.347656 271.949219 135.53125 C 271.046875 135.890625 270.507812 136.792969 270.6875 137.695312 Z M 270.6875 137.695312 " fill-opacity="1" fill-rule="nonzero"/><path fill="#004aad" d="M 227.199219 149.605469 C 227.199219 149.84375 227.152344 150.074219 227.0625 150.292969 C 226.96875 150.515625 226.839844 150.710938 226.667969 150.878906 C 226.5 151.050781 226.304688 151.179688 226.085938 151.269531 C 225.863281 151.363281 225.632812 151.410156 225.394531 151.410156 C 225.15625 151.410156 224.925781 151.363281 224.703125 151.269531 C 224.480469 151.179688 224.285156 151.050781 224.117188 150.878906 C 223.949219 150.710938 223.816406 150.515625 223.726562 150.292969 C 223.636719 150.074219 223.589844 149.84375 223.589844 149.605469 C 223.589844 149.363281 223.636719 149.136719 223.726562 148.914062 C 223.816406 148.691406 223.949219 148.496094 224.117188 148.328125 C 224.285156 148.160156 224.480469 148.027344 224.703125 147.9375 C 224.925781 147.84375 225.15625 147.800781 225.394531 147.800781 C 225.632812 147.800781 225.863281 147.84375 226.085938 147.9375 C 226.304688 148.027344 226.5 148.160156 226.667969 148.328125 C 226.839844 148.496094 226.96875 148.691406 227.0625 148.914062 C 227.152344 149.136719 227.199219 149.363281 227.199219 149.605469 Z M 227.199219 149.605469 " fill-opacity="1" fill-rule="nonzero"/><path fill="#004aad" d="M 155.746094 181.175781 L 159.046875 179.714844 L 160.503906 183.015625 L 157.203125 184.476562 Z M 155.746094 181.175781 " fill-opacity="1" fill-rule="nonzero"/><path fill="#004aad" d="M 158.59375 187.6875 L 161.894531 186.226562 L 163.355469 189.527344 L 160.054688 190.988281 Z M 158.59375 187.6875 " fill-opacity="1" fill-rule="nonzero"/><path fill="#004aad" d="M 161.679688 194.292969 L 164.980469 192.835938 L 166.4375 196.136719 L 163.136719 197.597656 Z M 161.679688 194.292969 " fill-opacity="1" fill-rule="nonzero"/><path fill="#004aad" d="M 97.273438 238.023438 L 91.859375 238.023438 L 91.859375 248.851562 L 97.273438 248.851562 L 97.273438 252.460938 L 91.859375 252.460938 L 91.859375 263.289062 L 131.558594 263.289062 L 131.558594 256.070312 L 136.972656 256.070312 L 136.972656 245.242188 L 131.558594 245.242188 L 131.558594 241.632812 L 136.972656 241.632812 L 136.972656 230.804688 L 97.273438 230.804688 Z M 95.46875 245.242188 L 95.46875 241.632812 L 127.949219 241.632812 L 127.949219 245.242188 Z M 127.949219 259.679688 L 95.46875 259.679688 L 95.46875 256.070312 L 127.949219 256.070312 Z M 133.363281 248.851562 L 133.363281 252.460938 L 100.882812 252.460938 L 100.882812 248.851562 Z M 100.882812 234.414062 L 133.363281 234.414062 L 133.363281 238.023438 L 100.882812 238.023438 Z M 100.882812 234.414062 " fill-opacity="1" fill-rule="nonzero"/><path fill="#004aad" d="M 196.523438 238.023438 L 191.109375 238.023438 L 191.109375 248.851562 L 196.523438 248.851562 L 196.523438 252.460938 L 191.109375 252.460938 L 191.109375 263.289062 L 230.808594 263.289062 L 230.808594 256.070312 L 236.21875 256.070312 L 236.21875 245.242188 L 230.808594 245.242188 L 230.808594 241.632812 L 236.21875 241.632812 L 236.21875 230.804688 L 196.523438 230.804688 Z M 194.71875 245.242188 L 194.71875 241.632812 L 227.199219 241.632812 L 227.199219 245.242188 Z M 227.199219 259.679688 L 194.71875 259.679688 L 194.71875 256.070312 L 227.199219 256.070312 Z M 232.613281 248.851562 L 232.613281 252.460938 L 200.128906 252.460938 L 200.128906 248.851562 Z M 200.128906 234.414062 L 232.613281 234.414062 L 232.613281 238.023438 L 200.128906 238.023438 Z M 200.128906 234.414062 " fill-opacity="1" fill-rule="nonzero"/><path fill="#004aad" d="M 279.527344 256.070312 L 284.941406 256.070312 L 284.941406 245.242188 L 279.527344 245.242188 L 279.527344 241.632812 L 284.941406 241.632812 L 284.941406 230.804688 L 245.242188 230.804688 L 245.242188 238.023438 L 239.828125 238.023438 L 239.828125 248.851562 L 245.242188 248.851562 L 245.242188 252.460938 L 239.828125 252.460938 L 239.828125 263.289062 L 279.527344 263.289062 Z M 281.332031 248.851562 L 281.332031 252.460938 L 248.851562 252.460938 L 248.851562 248.851562 Z M 248.851562 234.414062 L 281.332031 234.414062 L 281.332031 238.023438 L 248.851562 238.023438 Z M 243.4375 245.242188 L 243.4375 241.632812 L 275.917969 241.632812 L 275.917969 245.242188 Z M 275.917969 259.679688 L 243.4375 259.679688 L 243.4375 256.070312 L 275.917969 256.070312 Z M 275.917969 259.679688 " fill-opacity="1" fill-rule="nonzero"/><path fill="#004aad" d="M 250.65625 174.867188 L 247.046875 174.867188 C 245.964844 174.867188 245.242188 175.589844 245.242188 176.671875 C 245.242188 177.753906 245.964844 178.476562 247.046875 178.476562 L 250.65625 178.476562 C 251.738281 178.476562 252.460938 177.753906 252.460938 176.671875 C 252.460938 175.589844 251.738281 174.867188 250.65625 174.867188 Z M 250.65625 174.867188 " fill-opacity="1" fill-rule="nonzero"/><path fill="#004aad" d="M 250.65625 182.085938 L 247.046875 182.085938 C 245.964844 182.085938 245.242188 182.808594 245.242188 183.890625 C 245.242188 184.972656 245.964844 185.695312 247.046875 185.695312 L 250.65625 185.695312 C 251.738281 185.695312 252.460938 184.972656 252.460938 183.890625 C 252.460938 182.808594 251.738281 182.085938 250.65625 182.085938 Z M 250.65625 182.085938 " fill-opacity="1" fill-rule="nonzero"/><path fill="#004aad" d="M 272.308594 174.867188 L 268.703125 174.867188 C 267.617188 174.867188 266.898438 175.589844 266.898438 176.671875 C 266.898438 177.753906 267.617188 178.476562 268.703125 178.476562 L 272.308594 178.476562 C 273.394531 178.476562 274.113281 177.753906 274.113281 176.671875 C 274.113281 175.589844 273.394531 174.867188 272.308594 174.867188 Z M 272.308594 174.867188 " fill-opacity="1" fill-rule="nonzero"/><path fill="#004aad" d="M 272.308594 182.085938 L 268.703125 182.085938 C 267.617188 182.085938 266.898438 182.808594 266.898438 183.890625 C 266.898438 184.972656 267.617188 185.695312 268.703125 185.695312 L 272.308594 185.695312 C 273.394531 185.695312 274.113281 184.972656 274.113281 183.890625 C 274.113281 182.808594 273.394531 182.085938 272.308594 182.085938 Z M 272.308594 182.085938 " fill-opacity="1" fill-rule="nonzero"/><path fill="#004aad" d="M 207.347656 174.867188 L 203.738281 174.867188 C 202.65625 174.867188 201.933594 175.589844 201.933594 176.671875 C 201.933594 177.753906 202.65625 178.476562 203.738281 178.476562 L 207.347656 178.476562 C 208.429688 178.476562 209.152344 177.753906 209.152344 176.671875 C 209.152344 175.589844 208.429688 174.867188 207.347656 174.867188 Z M 207.347656 174.867188 " fill-opacity="1" fill-rule="nonzero"/><path fill="#004aad" d="M 207.347656 182.085938 L 203.738281 182.085938 C 202.65625 182.085938 201.933594 182.808594 201.933594 183.890625 C 201.933594 184.972656 202.65625 185.695312 203.738281 185.695312 L 207.347656 185.695312 C 208.429688 185.695312 209.152344 184.972656 209.152344 183.890625 C 209.152344 182.808594 208.429688 182.085938 207.347656 182.085938 Z M 207.347656 182.085938 " fill-opacity="1" fill-rule="nonzero"/><path fill="#004aad" d="M 229.003906 174.867188 L 225.394531 174.867188 C 224.3125 174.867188 223.589844 175.589844 223.589844 176.671875 C 223.589844 177.753906 224.3125 178.476562 225.394531 178.476562 L 229.003906 178.476562 C 230.085938 178.476562 230.808594 177.753906 230.808594 176.671875 C 230.808594 175.589844 230.085938 174.867188 229.003906 174.867188 Z M 229.003906 174.867188 " fill-opacity="1" fill-rule="nonzero"/><path fill="#004aad" d="M 229.003906 182.085938 L 225.394531 182.085938 C 224.3125 182.085938 223.589844 182.808594 223.589844 183.890625 C 223.589844 184.972656 224.3125 185.695312 225.394531 185.695312 L 229.003906 185.695312 C 230.085938 185.695312 230.808594 184.972656 230.808594 183.890625 C 230.808594 182.808594 230.085938 182.085938 229.003906 182.085938 Z M 229.003906 182.085938 " fill-opacity="1" fill-rule="nonzero"/><path fill="#004aad" d="M 149.605469 234.414062 L 153.214844 234.414062 C 154.296875 234.414062 155.019531 233.695312 155.019531 232.609375 C 155.019531 231.527344 154.296875 230.804688 153.214844 230.804688 L 149.605469 230.804688 C 148.523438 230.804688 147.800781 231.527344 147.800781 232.609375 C 147.800781 233.695312 148.523438 234.414062 149.605469 234.414062 Z M 149.605469 234.414062 " fill-opacity="1" fill-rule="nonzero"/><path fill="#004aad" d="M 149.605469 241.632812 L 153.214844 241.632812 C 154.296875 241.632812 155.019531 240.910156 155.019531 239.828125 C 155.019531 238.746094 154.296875 238.023438 153.214844 238.023438 L 149.605469 238.023438 C 148.523438 238.023438 147.800781 238.746094 147.800781 239.828125 C 147.800781 240.910156 148.523438 241.632812 149.605469 241.632812 Z M 149.605469 241.632812 " fill-opacity="1" fill-rule="nonzero"/><path fill="#004aad" d="M 171.257812 234.414062 L 174.867188 234.414062 C 175.949219 234.414062 176.671875 233.695312 176.671875 232.609375 C 176.671875 231.527344 175.949219 230.804688 174.867188 230.804688 L 171.257812 230.804688 C 170.175781 230.804688 169.453125 231.527344 169.453125 232.609375 C 169.453125 233.695312 170.175781 234.414062 171.257812 234.414062 Z M 171.257812 234.414062 " fill-opacity="1" fill-rule="nonzero"/><path fill="#004aad" d="M 171.257812 241.632812 L 174.867188 241.632812 C 175.949219 241.632812 176.671875 240.910156 176.671875 239.828125 C 176.671875 238.746094 175.949219 238.023438 174.867188 238.023438 L 171.257812 238.023438 C 170.175781 238.023438 169.453125 238.746094 169.453125 239.828125 C 169.453125 240.910156 170.175781 241.632812 171.257812 241.632812 Z M 171.257812 241.632812 " fill-opacity="1" fill-rule="nonzero"/><g clip-path="url(#ae9b8a64fb)"><path fill="#ffffff" d="M 45.222656 151.226562 L 329.796875 151.226562 L 329.796875 214.960938 L 45.222656 214.960938 Z M 45.222656 151.226562 " fill-opacity="1" fill-rule="nonzero"/></g><path stroke-linecap="butt" transform="matrix(0.75, 0, 0, 0.75, 19.063163, 112.825202)" fill="none" stroke-linejoin="miter" d="M 31.80641 37.873691 C 40.488702 37.873691 46.769953 39.894525 50.644953 43.946608 C 54.545995 47.967442 56.493911 54.076817 56.493911 62.269526 L 56.493911 66.082026 C 56.493911 71.535152 55.629328 76.035152 53.90537 79.592444 C 52.202245 83.118486 49.488703 85.738278 45.759536 87.436194 C 50.301203 89.165361 53.493911 91.977861 55.348078 95.878903 C 57.223078 99.753904 58.160578 104.529946 58.160578 110.201821 L 58.160578 118.826822 C 58.160578 127.01953 56.035578 133.264322 51.795994 137.561198 C 47.551203 141.852865 41.233494 143.998698 32.842868 143.998698 L 6.634533 143.998698 L 6.634533 37.873691 Z M 23.290784 96.248695 L 23.290784 128.821614 L 32.842868 128.821614 C 35.68141 128.821614 37.827244 128.071614 39.280369 126.566405 C 40.764744 125.061197 41.504327 122.33203 41.504327 118.384113 L 41.504327 109.128904 C 41.504327 104.170571 40.665785 100.790362 38.983494 98.988279 C 37.332452 97.160153 34.582452 96.248695 30.733493 96.248695 Z M 23.290784 53.014317 L 23.290784 81.071611 L 29.842868 81.071611 C 32.978285 81.071611 35.420993 80.269527 37.170994 78.665361 C 38.947035 77.035152 39.83766 74.10286 39.83766 69.858068 L 39.83766 63.930985 C 39.83766 60.108068 39.144952 57.332026 37.764744 55.602859 C 36.405368 53.878901 34.259535 53.014317 31.322035 53.014317 Z M 59.848078 37.873691 L 76.504329 37.873691 L 76.504329 143.998698 L 59.848078 143.998698 Z M 105.483498 37.873691 C 114.170999 37.873691 120.452249 39.894525 124.327249 43.946608 C 128.223083 47.967442 130.176208 54.076817 130.176208 62.269526 L 130.176208 66.082026 C 130.176208 71.535152 129.311625 76.035152 127.582458 79.592444 C 125.879333 83.118486 123.165791 85.738278 119.441832 87.436194 C 123.978291 89.165361 127.176208 91.977861 129.025166 95.878903 C 130.900166 99.753904 131.842875 104.529946 131.842875 110.201821 L 131.842875 118.826822 C 131.842875 127.01953 129.717875 133.264322 125.473083 137.561198 C 121.228291 141.852865 114.910582 143.998698 106.519956 143.998698 L 80.311621 143.998698 L 80.311621 37.873691 Z M 96.973081 96.248695 L 96.973081 128.821614 L 106.519956 128.821614 C 109.358498 128.821614 111.504332 128.071614 112.962665 126.566405 C 114.441832 125.061197 115.181415 122.33203 115.181415 118.384113 L 115.181415 109.128904 C 115.181415 104.170571 114.342874 100.790362 112.66579 98.988279 C 111.014748 97.160153 108.25954 96.248695 104.410581 96.248695 Z M 96.973081 53.014317 L 96.973081 81.071611 L 103.525165 81.071611 C 106.655373 81.071611 109.098082 80.269527 110.85329 78.665361 C 112.629332 77.035152 113.514749 74.10286 113.514749 69.858068 L 113.514749 63.930985 C 113.514749 60.108068 112.827249 57.332026 111.441832 55.602859 C 110.087665 53.878901 107.941832 53.014317 105.004331 53.014317 Z M 133.525167 37.873691 L 150.186626 37.873691 L 150.186626 128.821614 L 177.650169 128.821614 L 177.650169 143.998698 L 133.525167 143.998698 Z M 176.884544 37.873691 L 193.546004 37.873691 L 193.546004 143.998698 L 176.884544 143.998698 Z M 212.676213 119.608072 C 212.676213 123.430989 213.457463 126.134114 215.009547 127.712239 C 216.587672 129.269531 218.68663 130.045572 221.301214 130.045572 C 223.941839 130.045572 226.040798 129.269531 227.592881 127.712239 C 229.150173 126.134114 229.926215 123.430989 229.926215 119.608072 L 229.926215 62.269526 C 229.926215 58.441401 229.150173 55.753901 227.592881 54.196609 C 226.040798 52.618484 223.941839 51.826817 221.301214 51.826817 C 218.68663 51.826817 216.587672 52.618484 215.009547 54.196609 C 213.457463 55.753901 212.676213 58.441401 212.676213 62.269526 Z M 195.983504 63.342443 C 195.983504 54.753901 198.155379 48.165359 202.499129 43.571608 C 206.84288 38.957025 213.108505 36.649733 221.301214 36.649733 C 229.493923 36.649733 235.764757 38.957025 240.108507 43.571608 C 244.452257 48.165359 246.624132 54.753901 246.624132 63.342443 L 246.624132 118.535155 C 246.624132 127.118489 244.452257 133.722656 240.108507 138.337239 C 235.764757 142.925781 229.493923 145.222657 221.301214 145.222657 C 213.108505 145.222657 206.84288 142.925781 202.499129 138.337239 C 198.155379 133.722656 195.983504 127.118489 195.983504 118.535155 Z M 195.983504 63.342443 " stroke="#ffffff" stroke-width="14.594195" stroke-opacity="1" stroke-miterlimit="4"/><path stroke-linecap="butt" transform="matrix(0.75, 0, 0, 0.75, 19.063163, 112.825202)" fill="none" stroke-linejoin="miter" d="M 244.50434 37.873691 L 296.066844 37.873691 L 296.066844 53.014317 L 278.629343 53.014317 L 278.629343 143.998698 L 261.936633 143.998698 L 261.936633 53.014317 L 244.50434 53.014317 Z M 311.952262 82.587236 L 334.863721 82.587236 L 334.863721 97.76432 L 311.952262 97.76432 L 311.952262 128.821614 L 340.790805 128.821614 L 340.790805 143.998698 L 295.29601 143.998698 L 295.29601 37.873691 L 340.790805 37.873691 L 340.790805 53.014317 L 311.952262 53.014317 Z M 391.092892 104.430987 L 391.092892 118.535155 C 391.092892 127.118489 388.993933 133.722656 384.796016 138.337239 C 380.603308 142.925781 374.421016 145.222657 366.254348 145.222657 C 358.06164 145.222657 351.863723 142.925781 347.671014 138.337239 C 343.473097 133.722656 341.379347 127.118489 341.379347 118.535155 L 341.379347 63.342443 C 341.379347 54.753901 343.473097 48.165359 347.671014 43.571608 C 351.863723 38.957025 358.06164 36.649733 366.254348 36.649733 C 374.421016 36.649733 380.603308 38.957025 384.796016 43.571608 C 388.993933 48.165359 391.092892 54.753901 391.092892 63.342443 L 391.092892 73.628902 L 375.322057 73.628902 L 375.322057 62.269526 C 375.322057 58.441401 374.546016 55.753901 372.988724 54.196609 C 371.43664 52.618484 369.337682 51.826817 366.697057 51.826817 C 364.082473 51.826817 361.983515 52.618484 360.40539 54.196609 C 358.848098 55.753901 358.072056 58.441401 358.072056 62.269526 L 358.072056 119.608072 C 358.072056 123.430989 358.848098 126.108072 360.40539 127.639322 C 361.983515 129.144531 364.082473 129.894531 366.697057 129.894531 C 369.337682 129.894531 371.43664 129.144531 372.988724 127.639322 C 374.546016 126.108072 375.322057 123.430989 375.322057 119.608072 L 375.322057 104.430987 Z M 391.092892 104.430987 " stroke="#ffffff" stroke-width="14.594195" stroke-opacity="1" stroke-miterlimit="4"/><path stroke-linecap="butt" transform="matrix(0.75, 0, 0, 0.75, 19.063163, 112.825202)" fill="none" stroke-linejoin="miter" d="M 446.900187 143.998698 L 430.056436 143.998698 L 427.207477 124.753905 L 406.738726 124.753905 L 403.848101 143.998698 L 388.525183 143.998698 L 405.514768 37.873691 L 429.910603 37.873691 Z M 408.848101 110.352863 L 424.910602 110.352863 L 416.879352 56.675776 Z M 408.848101 110.352863 " stroke="#ffffff" stroke-width="14.594195" stroke-opacity="1" stroke-miterlimit="4"/><g fill="#000000" fill-opacity="1"><g transform="translate(19.485038, 220.825195)"><g><path d="M 23.421875 -79.609375 C 29.941406 -79.609375 34.660156 -78.085938 37.578125 -75.046875 C 40.503906 -72.015625 41.96875 -67.429688 41.96875 -61.296875 L 41.96875 -58.453125 C 41.96875 -54.359375 41.320312 -50.984375 40.03125 -48.328125 C 38.738281 -45.671875 36.691406 -43.703125 33.890625 -42.421875 C 37.296875 -41.128906 39.703125 -39.023438 41.109375 -36.109375 C 42.515625 -33.191406 43.21875 -29.609375 43.21875 -25.359375 L 43.21875 -18.875 C 43.21875 -12.738281 41.625 -8.054688 38.4375 -4.828125 C 35.25 -1.609375 30.507812 0 24.21875 0 L 4.546875 0 L 4.546875 -79.609375 Z M 17.0625 -35.828125 L 17.0625 -11.375 L 24.21875 -11.375 C 26.34375 -11.375 27.953125 -11.941406 29.046875 -13.078125 C 30.148438 -14.210938 30.703125 -16.257812 30.703125 -19.21875 L 30.703125 -26.15625 C 30.703125 -29.875 30.078125 -32.414062 28.828125 -33.78125 C 27.578125 -35.144531 25.507812 -35.828125 22.625 -35.828125 Z M 17.0625 -68.234375 L 17.0625 -47.1875 L 21.953125 -47.1875 C 24.296875 -47.1875 26.128906 -47.789062 27.453125 -49 C 28.785156 -50.21875 29.453125 -52.421875 29.453125 -55.609375 L 29.453125 -60.046875 C 29.453125 -62.921875 28.9375 -65.003906 27.90625 -66.296875 C 26.882812 -67.585938 25.273438 -68.234375 23.078125 -68.234375 Z M 17.0625 -68.234375 "/></g></g></g><g fill="#000000" fill-opacity="1"><g transform="translate(59.395447, 220.825195)"><g><path d="M 4.546875 -79.609375 L 17.0625 -79.609375 L 17.0625 0 L 4.546875 0 Z M 4.546875 -79.609375 "/></g></g></g><g fill="#000000" fill-opacity="1"><g transform="translate(74.745132, 220.825195)"><g><path d="M 23.421875 -79.609375 C 29.941406 -79.609375 34.660156 -78.085938 37.578125 -75.046875 C 40.503906 -72.015625 41.96875 -67.429688 41.96875 -61.296875 L 41.96875 -58.453125 C 41.96875 -54.359375 41.320312 -50.984375 40.03125 -48.328125 C 38.738281 -45.671875 36.691406 -43.703125 33.890625 -42.421875 C 37.296875 -41.128906 39.703125 -39.023438 41.109375 -36.109375 C 42.515625 -33.191406 43.21875 -29.609375 43.21875 -25.359375 L 43.21875 -18.875 C 43.21875 -12.738281 41.625 -8.054688 38.4375 -4.828125 C 35.25 -1.609375 30.507812 0 24.21875 0 L 4.546875 0 L 4.546875 -79.609375 Z M 17.0625 -35.828125 L 17.0625 -11.375 L 24.21875 -11.375 C 26.34375 -11.375 27.953125 -11.941406 29.046875 -13.078125 C 30.148438 -14.210938 30.703125 -16.257812 30.703125 -19.21875 L 30.703125 -26.15625 C 30.703125 -29.875 30.078125 -32.414062 28.828125 -33.78125 C 27.578125 -35.144531 25.507812 -35.828125 22.625 -35.828125 Z M 17.0625 -68.234375 L 17.0625 -47.1875 L 21.953125 -47.1875 C 24.296875 -47.1875 26.128906 -47.789062 27.453125 -49 C 28.785156 -50.21875 29.453125 -52.421875 29.453125 -55.609375 L 29.453125 -60.046875 C 29.453125 -62.921875 28.9375 -65.003906 27.90625 -66.296875 C 26.882812 -67.585938 25.273438 -68.234375 23.078125 -68.234375 Z M 17.0625 -68.234375 "/></g></g></g><g fill="#000000" fill-opacity="1"><g transform="translate(114.655541, 220.825195)"><g><path d="M 4.546875 -79.609375 L 17.0625 -79.609375 L 17.0625 -11.375 L 37.640625 -11.375 L 37.640625 0 L 4.546875 0 Z M 4.546875 -79.609375 "/></g></g></g><g fill="#000000" fill-opacity="1"><g transform="translate(147.17499, 220.825195)"><g><path d="M 4.546875 -79.609375 L 17.0625 -79.609375 L 17.0625 0 L 4.546875 0 Z M 4.546875 -79.609375 "/></g></g></g><g fill="#000000" fill-opacity="1"><g transform="translate(162.524675, 220.825195)"><g><path d="M 16.03125 -18.3125 C 16.03125 -15.425781 16.617188 -13.394531 17.796875 -12.21875 C 18.972656 -11.050781 20.546875 -10.46875 22.515625 -10.46875 C 24.484375 -10.46875 26.054688 -11.050781 27.234375 -12.21875 C 28.410156 -13.394531 29 -15.425781 29 -18.3125 L 29 -61.296875 C 29 -64.171875 28.410156 -66.195312 27.234375 -67.375 C 26.054688 -68.550781 24.484375 -69.140625 22.515625 -69.140625 C 20.546875 -69.140625 18.972656 -68.550781 17.796875 -67.375 C 16.617188 -66.195312 16.03125 -64.171875 16.03125 -61.296875 Z M 3.53125 -60.5 C 3.53125 -66.945312 5.160156 -71.894531 8.421875 -75.34375 C 11.679688 -78.789062 16.378906 -80.515625 22.515625 -80.515625 C 28.660156 -80.515625 33.359375 -78.789062 36.609375 -75.34375 C 39.867188 -71.894531 41.5 -66.945312 41.5 -60.5 L 41.5 -19.109375 C 41.5 -12.660156 39.867188 -7.710938 36.609375 -4.265625 C 33.359375 -0.816406 28.660156 0.90625 22.515625 0.90625 C 16.378906 0.90625 11.679688 -0.816406 8.421875 -4.265625 C 5.160156 -7.710938 3.53125 -12.660156 3.53125 -19.109375 Z M 3.53125 -60.5 "/></g></g></g><g fill="#004aad" fill-opacity="1"><g transform="translate(201.301436, 220.825195)"><g><path d="M 1.140625 -79.609375 L 39.796875 -79.609375 L 39.796875 -68.234375 L 26.71875 -68.234375 L 26.71875 0 L 14.21875 0 L 14.21875 -68.234375 L 1.140625 -68.234375 Z M 1.140625 -79.609375 "/></g></g></g><g fill="#004aad" fill-opacity="1"><g transform="translate(235.981323, 220.825195)"><g><path d="M 17.0625 -46.0625 L 34.234375 -46.0625 L 34.234375 -34.6875 L 17.0625 -34.6875 L 17.0625 -11.375 L 38.671875 -11.375 L 38.671875 0 L 4.546875 0 L 4.546875 -79.609375 L 38.671875 -79.609375 L 38.671875 -68.234375 L 17.0625 -68.234375 Z M 17.0625 -46.0625 "/></g></g></g><g fill="#004aad" fill-opacity="1"><g transform="translate(271.570867, 220.825195)"><g><path d="M 40.828125 -29.6875 L 40.828125 -19.109375 C 40.828125 -12.660156 39.253906 -7.710938 36.109375 -4.265625 C 32.960938 -0.816406 28.316406 0.90625 22.171875 0.90625 C 16.035156 0.90625 11.394531 -0.816406 8.25 -4.265625 C 5.101562 -7.710938 3.53125 -12.660156 3.53125 -19.109375 L 3.53125 -60.5 C 3.53125 -66.945312 5.101562 -71.894531 8.25 -75.34375 C 11.394531 -78.789062 16.035156 -80.515625 22.171875 -80.515625 C 28.316406 -80.515625 32.960938 -78.789062 36.109375 -75.34375 C 39.253906 -71.894531 40.828125 -66.945312 40.828125 -60.5 L 40.828125 -52.765625 L 29 -52.765625 L 29 -61.296875 C 29 -64.171875 28.410156 -66.195312 27.234375 -67.375 C 26.054688 -68.550781 24.484375 -69.140625 22.515625 -69.140625 C 20.546875 -69.140625 18.972656 -68.550781 17.796875 -67.375 C 16.617188 -66.195312 16.03125 -64.171875 16.03125 -61.296875 L 16.03125 -18.3125 C 16.03125 -15.425781 16.617188 -13.414062 17.796875 -12.28125 C 18.972656 -11.144531 20.546875 -10.578125 22.515625 -10.578125 C 24.484375 -10.578125 26.054688 -11.144531 27.234375 -12.28125 C 28.410156 -13.414062 29 -15.425781 29 -18.3125 L 29 -29.6875 Z M 40.828125 -29.6875 "/></g></g></g><g fill="#000000" fill-opacity="1"><g transform="translate(309.207679, 220.825195)"><g><path d="M 45.03125 0 L 32.40625 0 L 30.25 -14.4375 L 14.890625 -14.4375 L 12.734375 0 L 1.25 0 L 13.984375 -79.609375 L 32.296875 -79.609375 Z M 16.484375 -25.25 L 28.546875 -25.25 L 22.515625 -65.5 Z M 16.484375 -25.25 "/></g></g></g></svg>